# xmcd CD database file
#
# Track frame offsets:
#	150
#	26970
#	31232
#	55640
#	86587
#	107740
#	128466
#	154863
#	177430
#	181914
#	264789
#	275512
#	304330
#
# Disc length: 4179 seconds
#
# Revision: 0
# Processed by: cddbd v1.4PL0 Copyright (c) Steve Scherf et al.
# Submitted via: CDex 1.50
#
DISCID=a510510d
DTITLE=Gerhard Lipold - Songs of the Heart 3
DYEAR=1900
DGENRE=New Age
TTITLE0=Light Of The World
TTITLE1=Thank You For This Day
TTITLE2=Perfect Peace
TTITLE3=Let The Heavens Be Reflected
TTITLE4=Whirling Dervish
TTITLE5=Tva Meva
TTITLE6=Baba Nam Kevalam IV
TTITLE7=I Am Om
TTITLE8=Loka Samasta
TTITLE9=Shanti Mantra
TTITLE10=Gayatri Mantra
TTITLE11=Gayatri Song
TTITLE12=Om Mani Padme Hum
EXTD=
EXTT0=
EXTT1=
EXTT2=
EXTT3=
EXTT4=
EXTT5=
EXTT6=
EXTT7=
EXTT8=
EXTT9=
EXTT10=
EXTT11=
EXTT12=
PLAYORDER=
